<svg width="318" height="292" viewBox="0 0 318 292" fill="none" xmlns="http://www.w3.org/2000/svg">
<path fill-rule="evenodd" clip-rule="evenodd" d="M231.886 216.011L232.022 216.041L232.293 216.101C236.677 217.107 240.949 218.525 245.021 220.325C247.301 221.333 249.673 222.491 252.195 222.313C252.918 222.263 253.63 222.101 254.355 222.094C256.811 222.069 258.883 223.772 261.283 224.249C263.365 224.662 265.513 224.125 267.639 224.014C269.765 223.903 272.224 224.418 273.208 226.153C273.345 226.394 273.449 226.67 273.385 226.935C273.298 227.293 272.945 227.517 272.577 227.687L272.503 227.72L272.346 227.786C269.516 228.951 266.494 230.142 263.427 229.8L263.213 229.774L262.894 229.736C260.02 229.437 257.12 230.295 254.218 230.221C248.228 230.067 242.121 229.47 236.365 228.354L235.75 228.233L235.439 228.171C225.57 226.236 220.606 227.639 215.993 227.746L215.846 227.749L215.559 227.752C213.782 227.761 207.883 227.727 205.774 228.235C204.711 228.492 204.004 227.012 204.565 226.143C205.104 225.309 206.185 224.957 207.173 224.595L207.296 224.55L207.395 224.513C208.352 224.143 209.35 223.554 209.535 222.639L209.551 222.543L209.566 222.452C209.796 221.291 211.306 220.776 212.601 220.511L212.705 220.49L213.449 220.346C215.436 219.966 217.463 219.652 219.46 219.937C220.591 220.098 224.91 217.613 226.206 216.59C227.708 215.403 229.923 215.596 231.886 216.011ZM248.401 139.269L248.24 139.318C246.887 139.675 245.595 140.22 244.427 140.943C242.432 142.178 240.751 143.918 238.479 144.645C236.909 145.147 235.139 145.104 233.599 144.526C234.133 145.59 235.613 145.961 236.881 145.84C240.586 145.487 243.111 142.284 246.441 140.752C247.175 140.415 247.948 140.161 248.743 139.984C249.075 140.674 249.405 141.372 249.734 142.074L249.732 142.082C249.478 142.254 249.248 142.453 249.049 142.68C248.286 143.554 248.096 144.88 248.776 145.81C249.458 146.745 250.708 147.03 251.98 146.995L251.981 146.991L252.441 148.026C253.206 149.759 253.965 151.521 254.718 153.314L254.657 153.344C254.474 153.428 254.292 153.514 254.111 153.601C249.164 155.976 244.682 159.291 239.326 160.737C238.332 161.005 237.286 161.207 236.264 161.048C235.242 160.89 234.245 160.306 233.899 159.409C233.516 159.434 233.479 159.953 233.642 160.273C234.553 162.059 237.326 162.05 239.388 161.498C244.901 160.024 249.589 156.746 254.668 154.274L255.04 154.094L255.626 155.527C281.129 219.559 212.332 214.82 192.561 210.118C163.248 203.148 76.1794 229.174 57.0955 210.118C49.1569 202.191 45.1963 191.758 44.5049 180.086C50.3046 177.881 55.3506 174.022 61.2633 171.98C64.9763 170.698 68.9921 170.161 72.9491 170.418C74.9339 170.547 76.9636 170.895 78.6313 171.891C80.299 172.887 81.5376 174.648 81.3525 176.467C81.2236 177.734 80.4484 178.862 79.6319 179.891C79.0653 180.605 78.4627 181.303 77.7309 181.876C76.3354 182.969 74.5226 183.553 72.6966 183.711C70.8184 183.874 68.8234 183.573 67.3193 182.528C65.8151 181.482 64.9343 179.593 65.5193 177.947C65.7568 177.278 66.2107 176.688 66.745 176.184C67.8361 175.155 69.3884 174.441 70.939 174.627C72.4896 174.813 73.9046 176.099 73.7821 177.531C73.6595 178.962 71.6463 180.036 70.3708 179.205C70.5697 178.576 69.5615 177.986 69.0244 178.417C68.5561 178.793 68.7132 179.55 69.1896 179.917C69.666 180.284 70.3311 180.353 70.953 180.357C71.9663 180.364 73.0314 180.22 73.8383 179.657C75.6767 178.375 75.0788 175.39 73.0899 174.314C71.101 173.238 68.4524 173.779 66.6146 175.062C65.6909 175.706 64.8949 176.545 64.5103 177.55C63.7098 179.642 64.9304 182.077 66.9325 183.317C68.9346 184.556 71.52 184.764 73.9037 184.411C75.2566 184.21 76.6028 183.832 77.7274 183.113C78.839 182.402 79.6808 181.395 80.4577 180.376C81.4831 179.031 82.4616 177.539 82.4797 175.898C82.4995 174.058 81.2568 172.343 79.6041 171.304C77.9513 170.265 75.9377 169.819 73.9465 169.62C67.9547 169.02 61.8687 170.503 56.5273 173.067C52.4406 175.029 48.6708 177.633 44.4639 179.294C44.0362 170.097 45.6105 160.157 48.8439 150.085L49.1025 150.036C53.0968 149.272 57.1689 148.852 61.2482 148.783C63.9548 148.738 66.6971 148.851 69.2933 149.556C70.3832 149.851 71.4536 150.252 72.5858 150.342C74.7578 150.514 76.9689 149.53 79.0776 150.038C80.1414 150.295 80.848 148.815 80.2867 147.946C79.7254 147.078 78.5758 146.732 77.5563 146.353C76.5368 145.974 75.4381 145.348 75.301 144.346C75.1291 143.089 73.4964 142.558 72.1466 142.293L71.6515 142.196C69.5847 141.797 67.4726 141.443 65.3922 141.74C64.2609 141.901 63.0727 142.248 62.008 141.862C60.4189 141.285 59.9417 139.416 58.6464 138.393C57.3111 137.338 55.4136 137.373 53.6301 137.685C60.4381 122.553 70.6738 107.691 83.177 95.1711L83.1838 95.1784C83.2558 95.1868 83.3275 95.1945 83.3991 95.202C88.1183 95.6939 92.9542 95.2184 97.453 93.8201C100.669 92.8205 104.157 94.2024 107.079 95.7907C110.001 97.3791 112.971 99.2668 116.365 99.3585C118.796 99.4241 121.12 98.5487 123.468 97.9658C133.454 95.4857 143.952 98.2761 154.159 99.8223C157.302 100.298 160.839 100.572 163.372 98.7974C162.606 97.2604 160.774 96.3723 158.957 96.1038C157.14 95.8352 155.287 96.0744 153.45 96.1835C147.042 96.5643 140.528 95.3166 134.82 92.6151C131.687 91.1322 127.973 91.3546 124.467 91.0145C120.962 90.6744 117.066 89.3593 115.843 86.3237C114.763 83.6452 111.714 81.9065 108.618 81.6316C105.522 81.3566 102.426 82.351 99.7649 83.8289C97.1035 85.3068 94.7968 87.2542 92.4271 89.1039C91.5561 89.7837 90.6462 90.4666 89.5595 90.7924C88.9462 90.9762 88.3052 91.0379 87.6585 91.0692L87.4407 91.075C131.553 50.4348 200.308 39.4594 248.401 139.269ZM250.073 142.802C250.152 142.972 250.233 143.145 250.313 143.318L251.634 146.221C250.889 146.183 250.18 145.974 249.729 145.449C249.083 144.697 249.291 143.516 250.03 142.84L250.073 142.802ZM75.2071 116.229L74.9613 116.348C74.5848 116.534 74.222 116.727 73.6954 117.019L72.4494 117.715C70.8148 118.619 69.9249 119.024 68.7992 119.328C68.3023 119.462 67.9415 119.507 67.6115 119.456C67.2454 119.4 66.9383 119.196 66.8401 118.942L66.7539 118.719L66.4967 118.735C66.0314 118.765 65.933 119.228 66.1006 119.556C66.5428 120.423 67.7575 120.596 69.017 120.259C70.2955 119.917 71.2906 119.472 73.1043 118.492L74.2662 117.857C75.7689 117.041 76.5582 116.665 77.5559 116.32C79.1348 115.775 80.843 115.547 82.5257 115.656C83.5101 115.72 84.2576 115.896 84.8508 116.251C85.5299 116.657 85.9528 117.333 85.8888 117.963C85.8473 118.371 85.6344 118.759 85.1996 119.307C84.905 119.678 84.6778 119.921 84.4217 120.122C83.8961 120.534 83.1863 120.784 82.4073 120.852C81.5872 120.923 80.83 120.77 80.291 120.396C79.7121 119.993 79.4227 119.295 79.6212 118.736C79.7004 118.513 79.8562 118.295 80.078 118.085C80.5263 117.663 81.1066 117.433 81.626 117.496C82.1619 117.56 82.6126 118.004 82.5759 118.433L82.569 118.482C82.5059 118.801 82.1022 119.044 81.7904 118.999L81.7571 118.993L81.7563 118.986C81.6465 118.559 81.0128 118.287 80.6092 118.611C80.2408 118.906 80.3195 119.457 80.6866 119.74C80.9429 119.938 81.2541 120.003 81.6737 120.006C82.2679 120.01 82.7581 119.905 83.1438 119.636C84.1311 118.948 83.8766 117.373 82.7834 116.782C81.8357 116.269 80.5437 116.451 79.5726 117.129C79.0829 117.471 78.7183 117.889 78.5371 118.363C78.1464 119.384 78.6885 120.604 79.7274 121.248C80.6175 121.799 81.7889 121.958 83.0214 121.775C83.7322 121.67 84.3359 121.474 84.8342 121.155C85.2946 120.861 85.6483 120.49 86.1129 119.881C86.7446 119.052 87.0512 118.442 87.059 117.746C87.0683 116.87 86.5097 116.014 85.6531 115.476C84.9473 115.032 84.0841 114.793 83.0228 114.686C80.4752 114.431 77.7678 114.999 75.2071 116.229Z" fill="#64FCD9"/>
<path fill-rule="evenodd" clip-rule="evenodd" d="M49.8828 173.425C50.229 174.322 51.226 174.906 52.2476 175.064C53.2692 175.223 54.3156 175.021 55.3096 174.753C58.8588 173.795 62.0245 172.016 65.196 170.233C66.8104 169.326 68.4262 168.418 70.0949 167.617C75.4363 165.053 81.5223 163.569 87.5141 164.169C89.5053 164.368 91.5189 164.814 93.1717 165.853C94.8244 166.892 96.0671 168.608 96.0471 170.447C96.0292 172.088 95.0507 173.58 94.0253 174.925C93.2484 175.944 92.4066 176.951 91.295 177.662C90.1704 178.381 88.8242 178.759 87.4713 178.96C85.0876 179.313 82.5022 179.106 80.5001 177.866C78.498 176.627 77.2774 174.191 78.0779 172.099C78.4625 171.094 79.2585 170.256 80.1822 169.611C82.02 168.328 84.6686 167.787 86.6575 168.863C88.6464 169.939 89.2443 172.925 87.4059 174.207C86.599 174.769 85.5339 174.914 84.5206 174.907C83.8987 174.903 83.2336 174.833 82.7572 174.466C82.2808 174.099 82.1237 173.342 82.592 172.966C83.1291 172.535 84.1373 173.126 83.9384 173.754C85.2139 174.585 87.2271 173.512 87.3497 172.08C87.4722 170.648 86.0572 169.363 84.5066 169.176C82.956 168.99 81.4037 169.704 80.3126 170.733C79.7783 171.237 79.3244 171.827 79.0869 172.496C78.5019 174.143 79.3827 176.032 80.8869 177.077C82.391 178.123 84.386 178.423 86.2642 178.261C88.0902 178.103 89.903 177.518 91.2985 176.425C92.0303 175.852 92.6329 175.154 93.1995 174.44C94.016 173.412 94.7912 172.284 94.9201 171.016C95.1052 169.197 93.8666 167.437 92.1989 166.44C90.5312 165.444 88.5015 165.096 86.5167 164.968C82.5597 164.711 78.5439 165.247 74.8309 166.53C71.7214 167.603 68.8517 169.18 65.9861 170.754C62.5746 172.628 59.169 174.499 55.3718 175.514C53.3094 176.066 50.5369 176.075 49.6254 174.289C49.4623 173.969 49.4994 173.45 49.8828 173.425Z" fill="#64FCD9"/>
<path fill-rule="evenodd" clip-rule="evenodd" d="M147.674 193.691C143.631 198.435 132.593 194.771 127.853 192C123.112 189.229 124.932 186.545 124.932 185.232C124.932 183.919 124.606 182.314 123.813 181.179C123.02 180.044 110.482 175.178 110.482 169.832C110.482 164.847 114.24 160.285 119.498 158.219C127.853 154.936 131.94 157.023 139.66 159.907C147.38 162.791 146.745 169.832 146.745 169.832C146.745 169.832 153.077 187.351 147.674 193.691Z" fill="#E7EAEE"/>
<path d="M142.694 196.318C125.614 195.293 109.618 185.209 102.098 171.091C94.5781 156.973 95.6506 139.378 104.514 125.933C113.377 112.488 129.651 103.505 146.714 102.268C151.126 101.948 155.633 102.122 159.863 103.32C164.457 104.622 168.586 107.088 173.2 108.327C179.544 110.029 186.291 108.744 191.994 105.677C196.234 103.396 200.066 100.423 204.62 98.7267C209.942 96.7452 216.173 97.484 221.256 99.9365C226.34 102.389 230.366 106.404 233.469 110.841C242.706 124.052 244.076 140.481 245.184 156.148C245.793 164.756 246.354 173.679 243.004 181.738C239.963 189.053 233.964 194.98 227.704 200.296C221.066 205.933 213.921 211.146 205.931 215.033C190.358 222.608 172.14 224.799 154.587 223.353C137.034 221.906 120.023 216.992 103.644 211.02C94.5015 207.687 84.6447 216.673 75.0195 214.81C69.0725 213.659 64.9053 208.66 59.2538 206.607C53.1804 204.402 45.6627 206.178 41.5031 210.801C45.1435 202.711 57.6058 199.345 65.4373 204.336C69.4003 206.862 74.7137 206.705 79.3988 205.649C84.084 204.593 88.5681 202.747 93.3532 202.184C100.202 201.379 107.053 203.258 113.936 203.761C122.355 204.376 130.774 202.925 139.072 201.48C148.011 199.924 156.949 198.368 165.888 196.812C170.2 196.062 174.586 195.288 178.469 193.407C182.841 191.289 186.396 187.781 188.384 183.625C173.497 195.081 151.123 195.684 142.694 196.318Z" fill="white"/>
<path fill-rule="evenodd" clip-rule="evenodd" d="M148.946 194.08C144.903 198.824 133.865 195.16 129.125 192.389C124.384 189.618 126.204 186.934 126.204 185.621C126.204 184.308 125.878 182.703 125.085 181.568C124.292 180.433 111.754 175.567 111.754 170.222C111.754 165.236 115.512 160.675 120.77 158.609C129.125 155.325 133.212 157.413 140.932 160.296C148.652 163.18 148.017 170.222 148.017 170.222C148.017 170.222 154.349 187.74 148.946 194.08Z" fill="#E7EAEE"/>
<path fill-rule="evenodd" clip-rule="evenodd" d="M165.701 171.94C165.825 172.423 166.41 172.907 166.854 172.623C169.17 171.143 171.496 169.659 174.005 168.473C175.622 167.71 177.352 167.046 178.611 165.842C177.085 166.524 175.282 166.42 173.619 166.105C171.957 165.789 170.327 165.277 168.632 165.186C167.18 165.107 165.709 165.346 164.375 165.877C163.572 166.197 162.784 166.654 162.372 167.363C161.961 168.072 162.059 169.075 162.777 169.533C163.552 170.027 164.799 169.796 165.34 170.505C165.65 170.911 165.577 171.458 165.701 171.94Z" fill="#E7EAEE"/>
<path fill-rule="evenodd" clip-rule="evenodd" d="M187.794 126.017C191.26 131.717 195.671 135.787 192.862 138.375C190.426 140.619 191.276 136.715 188.512 135.877C186.678 135.321 182.763 136.468 179.337 136.336C174.618 136.155 173.964 139.009 170.45 138.858C164.981 138.621 157.54 135.326 155.253 134.515C152.507 133.541 153.329 130.166 155.253 128.566C155.961 127.977 158.28 129.701 158.537 128.912C159.489 125.978 157.423 123.361 159 122.97C159.725 122.789 162.371 123.584 163.372 124.527C164.549 125.633 165.732 127.28 168.162 126.611C172.662 125.371 172.084 122.67 175.6 122.67C179.117 122.67 183.712 125.035 185.927 125.731C188.141 126.427 184.329 120.317 187.794 126.017Z" fill="#E7EAEE"/>
<path fill-rule="evenodd" clip-rule="evenodd" d="M152.061 154.762C152.521 156.02 153.465 157.123 154.533 158.017C155.533 158.854 157.127 159.568 156.928 160.797C158.91 158.873 161.874 157.842 164.746 158.076C165.721 158.155 166.677 158.371 167.652 158.441C171.234 158.696 174.594 156.989 177.704 155.338C179.938 154.153 182.171 152.967 184.404 151.781C184.922 150.794 184.521 149.56 183.722 148.746C182.922 147.933 181.798 147.459 180.684 147.065C179.477 146.638 178.219 146.275 176.926 146.251C175.663 146.227 174.012 146.328 173.556 145.247C172.95 143.812 171.473 142.719 169.818 142.481C168.162 142.242 166.392 142.868 165.337 144.064C164.246 145.301 162.462 145.778 160.833 146.322C158.858 146.982 156.96 147.835 155.181 148.861C153.689 149.721 152.146 150.921 152.061 152.537C152.025 153.224 151.823 154.109 152.061 154.762Z" fill="#E7EAEE"/>
<path fill-rule="evenodd" clip-rule="evenodd" d="M156.721 118.476C159.066 119.091 161.264 117.083 163.689 116.846C165.67 116.653 167.628 117.667 169.603 117.42C170.315 117.33 171.157 116.72 170.782 116.157C170.563 115.828 170.069 115.787 169.649 115.784C167.366 115.763 165.084 115.743 162.801 115.722C162.059 115.716 161.254 115.689 160.678 115.259C159.479 114.365 158.018 113.817 156.546 113.388C154.532 112.8 152.448 112.411 150.343 112.245C148.045 112.064 145.722 112.15 143.447 112.5C142.554 113.564 141.661 114.628 140.769 115.693C139.673 116.999 138.204 118.451 136.432 118.181C134.12 117.829 131.69 118.168 129.595 119.133C131.702 118.494 134.034 118.501 136.135 119.152C137.47 119.566 138.704 120.227 140.052 120.599C143.406 121.523 147.007 120.562 150.284 119.431C152.357 118.716 154.592 117.919 156.721 118.476Z" fill="#E7EAEE"/>
<path d="M196.515 142.757C196.569 143.181 196.865 143.543 197.164 143.871C198.673 145.522 200.613 146.917 202.882 147.469C207.082 148.492 211.596 146.386 214.338 143.292C217.079 140.198 218.41 136.276 219.629 132.447C219.98 131.341 220.503 130.068 221.711 129.758C223.017 129.423 224.104 128.446 224.496 127.254C224.888 126.062 224.573 124.695 223.687 123.752C222.686 122.686 220.528 122.38 219.765 123.601C219.468 124.075 218.744 124.185 218.178 124.016C217.611 123.846 217.153 123.47 216.674 123.145C213.705 121.134 209.744 121.019 206.054 120.984C204.887 120.973 203.705 120.963 202.57 121.217C200.225 121.74 198.328 123.322 196.064 124.094C193.171 125.08 189.739 124.596 187.301 122.859C189.949 126.709 192.16 130.811 193.887 135.079C194.013 135.936 196.209 140.339 196.515 142.757Z" fill="white"/>
<path fill-rule="evenodd" clip-rule="evenodd" d="M137.137 127.595C136.525 126.228 135.607 124.622 133.999 124.568C133.56 124.553 133.13 124.665 132.697 124.733C130.388 125.093 127.543 122.428 126.677 122.212C125.811 121.996 124.762 123.495 123.666 123.945C122.569 124.395 121.418 125.113 121.258 126.206C121.13 127.081 121.686 128 121.35 128.827C120.873 130 118.946 130.201 118.439 131.364C117.997 132.38 118.897 133.445 119.765 134.196C121.702 135.87 123.992 137.637 124.183 140.073C124.255 140.985 125.184 141.604 126.001 142.127C129.011 144.055 131.674 146.437 133.85 149.15C133.352 148.518 133.612 147.598 134.149 146.994C134.687 146.39 135.444 145.992 136.087 145.482C137.345 144.483 138.157 143.059 139.486 142.14C141.158 140.982 143.367 140.799 145.429 140.46C147.491 140.122 149.722 139.445 150.75 137.77C150.85 137.606 150.939 137.426 150.92 137.239C150.864 136.71 150.099 136.591 149.613 136.302C148.702 135.761 148.769 134.55 148.456 133.596C148.001 132.208 146.58 131.231 145.068 130.813C143.556 130.395 141.945 130.443 140.367 130.495C138.759 130.548 137.748 128.961 137.137 127.595Z" fill="#E7EAEE"/>
<path d="M292.872 217.596C292.695 217.736 292.522 217.381 292.656 217.205C292.845 217.155 292.907 217.432 292.864 217.609L292.872 217.596Z" fill="black"/>
<path fill-rule="evenodd" clip-rule="evenodd" d="M224.904 183.051C223.841 183.418 222.544 183.116 221.8 182.327C221.421 181.925 220.692 182.169 220.261 182.523C219.829 182.876 219.404 183.346 218.825 183.343C218.232 183.339 217.779 182.795 217.715 182.254C217.651 181.713 217.873 181.182 218.091 180.676C217.28 180.818 216.429 180.957 215.644 180.723C214.86 180.488 214.191 179.741 214.398 179.008C214.474 178.739 214.655 178.505 214.863 178.305C215.553 177.64 216.592 177.295 217.585 177.401C218.069 177.453 218.238 176.827 218.197 176.381C218.118 175.533 217.969 174.66 218.228 173.842C218.487 173.024 219.312 172.277 220.232 172.389C221.399 172.531 221.889 173.825 222.018 174.9C222.063 175.267 222.395 175.77 222.707 175.536C223.709 174.787 225.31 174.829 226.264 175.63C226.632 175.939 226.913 176.373 226.887 176.83C226.858 177.364 226.425 177.809 225.942 178.107C225.459 178.404 224.908 178.601 224.439 178.916C225.461 179.545 226.534 180.49 226.324 181.603C226.198 182.273 225.597 182.811 224.904 183.051ZM220.392 179.431C220.417 179.539 220.443 179.647 220.468 179.756C219.614 180.15 219.35 181.134 219.18 181.998C219.435 182.174 219.789 181.945 219.972 181.704C220.371 181.178 220.56 180.545 220.853 179.962C221.145 179.38 221.601 178.807 222.272 178.628C222.55 178.554 222.846 178.554 223.131 178.502C223.738 178.393 224.264 178.057 224.769 177.73C225.052 177.547 225.35 177.346 225.465 177.047C225.724 176.379 224.82 175.726 224.06 175.854C223.301 175.982 222.751 176.576 222.304 177.155C221.858 177.734 221.408 178.367 220.699 178.648C220.494 178.73 220.258 178.778 220.047 178.709C219.836 178.64 219.674 178.421 219.745 178.226C219.817 178.032 220.167 177.974 220.267 178.158C220.444 178.083 220.529 177.864 220.442 177.703C219.541 177.85 218.64 177.998 217.738 178.145C217.243 178.226 216.73 178.314 216.322 178.584C215.914 178.854 215.647 179.362 215.842 179.788C217.15 180.581 218.869 179.088 220.392 179.431ZM222.663 179.511C222.046 179.62 221.812 180.381 222.051 180.916C222.29 181.45 222.823 181.813 223.295 182.194C223.752 182.563 224.547 182.393 224.874 181.921C225.2 181.45 225.096 180.797 224.727 180.353C224.358 179.909 223.773 179.652 223.178 179.536C223.008 179.503 222.833 179.481 222.663 179.511ZM221.014 175.839C220.979 175.01 220.888 174.074 220.187 173.55C219.973 173.391 219.699 173.674 219.612 173.915C219.391 174.528 219.288 175.177 219.311 175.823C219.323 176.146 219.371 176.482 219.567 176.75C219.763 177.018 220.143 177.196 220.475 177.087C220.969 176.926 221.035 176.32 221.014 175.839V175.839Z" fill="#FFB61D"/>
<path fill-rule="evenodd" clip-rule="evenodd" d="M220.146 110.07C219.725 109.801 219.303 109.532 218.882 109.263C219.517 108.843 220.456 108.967 221.054 109.43C221.652 109.894 221.942 110.626 221.995 111.343C222.035 111.889 221.904 112.516 221.398 112.807C220.911 113.087 220.28 112.95 219.727 112.804C219.272 112.683 218.816 112.562 218.36 112.442C217.882 112.315 217.46 112.754 217.23 113.16C216.999 113.565 216.734 114.05 216.241 114.111C215.584 114.191 215.195 113.487 214.728 113.056C213.366 111.801 210.647 112.701 209.389 111.358C208.854 110.785 208.776 109.919 209.101 109.226C209.426 108.533 210.106 108.012 210.87 107.734C211.18 107.621 211.513 107.54 211.774 107.349C212.035 107.158 212.202 106.81 212.045 106.54C211.686 105.924 211.321 105.287 211.246 104.592C211.172 103.896 211.461 103.12 212.132 102.791C212.782 102.472 213.62 102.66 214.193 103.086C214.766 103.511 215.124 104.13 215.426 104.747C215.513 104.923 215.606 105.112 215.786 105.213C215.965 105.315 216.256 105.271 216.314 105.085C216.607 104.143 217.994 103.751 218.942 104.201C219.891 104.65 220.369 105.696 220.338 106.676C220.327 107.025 220.257 107.384 220.044 107.673C219.894 107.876 219.682 108.033 219.47 108.182C218.835 108.632 218.168 109.044 217.476 109.417C217.445 110.627 218.513 111.779 219.819 111.945C220.262 112.001 220.792 111.913 221.003 111.55C221.317 111.008 220.696 110.421 220.146 110.07ZM217.73 108.063C218.467 107.976 219.123 107.463 219.334 106.809C219.545 106.155 219.299 105.396 218.732 104.955C218.621 104.868 218.49 104.79 218.344 104.781C218.172 104.771 218.014 104.857 217.868 104.94C216.811 105.539 215.624 106.344 215.649 107.485C215.675 108.688 215.236 109.896 214.427 110.844C214.136 111.187 214.357 111.701 214.686 112.014C215.015 112.326 215.449 112.559 215.673 112.942C215.829 113.21 216.297 113.176 216.518 112.951C216.739 112.725 216.777 112.399 216.792 112.096C216.851 110.963 216.747 109.823 216.485 108.714C216.427 108.469 216.663 108.238 216.921 108.156C217.179 108.075 217.46 108.095 217.73 108.063M214.56 108.822C214.117 109.047 213.637 108.63 213.205 108.388C212.004 107.717 210.278 108.587 209.948 109.841C209.819 110.331 210.2 110.837 210.689 111.067C211.178 111.296 211.748 111.315 212.296 111.328C212.663 111.338 213.062 111.337 213.35 111.129C213.538 110.993 213.648 110.787 213.75 110.588C214.043 110.008 214.314 109.419 214.56 108.822ZM213.066 103.513C212.636 103.489 212.269 103.851 212.183 104.239C212.097 104.627 212.225 105.027 212.377 105.397C212.882 106.628 213.671 107.759 214.678 108.694C214.92 107.015 215.072 105.071 213.772 103.869C213.579 103.69 213.34 103.528 213.066 103.513V103.513Z" fill="#E7EAEE"/>
<path fill-rule="evenodd" clip-rule="evenodd" d="M123.797 148.333C122.631 148.919 121.88 150.141 121.937 151.361C121.961 151.889 122.061 152.547 121.573 152.826C121.17 151.549 121.359 150.124 122.084 148.972C122.263 148.688 122.484 148.411 122.799 148.256C123.114 148.102 123.543 148.102 123.797 148.333V148.333Z" fill="#00160A"/>
<ellipse cx="216.24" cy="133.736" rx="1.484" ry="1.36266" fill="#FFB61D"/>
<path fill-rule="evenodd" clip-rule="evenodd" d="M169.344 176.909C169.463 176.443 169.695 175.939 170.18 175.765C171.249 175.38 172.086 176.874 173.231 176.954C173.856 176.998 174.416 176.605 175.034 176.508C176.059 176.348 177.126 177.183 177.116 178.137C177.108 178.947 176.459 179.653 176.401 180.46C175.822 180.368 175.173 180.586 174.875 181.05C174.577 181.515 174.731 182.204 175.251 182.456C175.77 182.707 176.534 182.356 176.552 181.817C176.562 181.526 176.384 181.258 176.338 180.971C176.291 180.683 176.489 180.311 176.802 180.355C177.408 180.713 177.736 181.429 177.59 182.078C177.443 182.726 176.833 183.264 176.122 183.372C175.903 183.405 175.67 183.403 175.477 183.502C175.148 183.672 175.058 184.058 174.931 184.385C174.683 185.019 174.146 185.572 173.451 185.787C172.756 186.002 171.914 185.833 171.447 185.313C170.98 184.794 170.987 183.941 171.523 183.481C171.192 183.327 170.854 183.645 170.543 183.831C169.761 184.297 168.594 183.828 168.267 183.026C167.94 182.225 168.339 181.279 169.051 180.726C169.278 180.549 169.567 180.324 169.477 180.063C169.126 179.048 169.079 177.946 169.344 176.909ZM172.772 180.746C172.491 181.815 172.21 182.886 172.063 183.977C172.02 184.303 172.014 184.689 172.294 184.891C172.596 185.11 173.051 184.975 173.35 184.752C174.152 184.154 174.327 182.963 173.726 182.191C173.303 181.647 173.688 180.87 174.225 180.419C174.762 179.968 175.453 179.653 175.843 179.089C176.233 178.525 176.07 177.566 175.352 177.461C174.792 177.379 174.179 177.521 173.789 177.898C173.437 178.24 173.304 178.72 173.184 179.177C173.046 179.7 172.909 180.223 172.772 180.746ZM171.793 179.968C172.32 179.698 172.408 179.025 172.274 178.485C172.119 177.867 171.753 177.294 171.24 176.87C171.118 176.769 170.978 176.672 170.815 176.658C170.373 176.619 170.165 177.14 170.106 177.544C170.018 178.139 169.936 178.769 170.202 179.317C170.468 179.866 171.222 180.259 171.793 179.968M169.346 182.845C169.713 183.258 170.47 183.018 170.852 182.617C171.234 182.215 171.474 181.68 171.974 181.408C172.191 181.291 172.02 180.947 171.772 180.91C171.523 180.873 171.29 181.01 171.064 181.112C170.616 181.315 170.103 181.398 169.696 181.663C169.288 181.928 169.031 182.49 169.346 182.845Z" fill="#FFB61D"/>
<path d="M292.218 211.302C292.411 211.237 292.481 211.546 292.377 211.709C292.181 211.772 292.11 211.464 292.209 211.295L292.218 211.302Z" fill="black"/>
<path fill-rule="evenodd" clip-rule="evenodd" d="M224.496 127.254C224.998 126.064 224.573 124.695 223.687 123.752C222.686 122.686 220.528 122.38 219.765 123.601C219.468 124.075 218.744 124.185 218.178 124.016C217.611 123.846 217.153 123.47 216.674 123.145C213.705 121.134 209.744 121.019 206.054 120.984C204.887 120.973 203.705 120.963 202.57 121.217C200.225 121.74 198.328 123.322 196.064 124.094C193.171 125.08 189.739 124.596 187.301 122.859C188.287 124.292 190.996 128.925 190.996 128.925C190.996 128.925 190.508 126.761 191.237 126.562C192.577 126.197 194.282 126.934 195.598 126.764C200.503 126.132 203.099 123.937 205.006 123.752C218.178 122.479 223.192 130.345 224.496 127.254Z" fill="#E7EAEE"/>
<path fill-rule="evenodd" clip-rule="evenodd" d="M227.704 197.181C221.066 202.818 213.921 208.031 205.932 211.918C190.358 219.493 172.14 221.684 154.587 220.238C137.034 218.792 120.024 213.877 103.644 207.905C99.0118 206.216 140.662 218.304 174.045 215.366C206.549 212.506 230.792 194.559 227.704 197.181Z" fill="#E7EAEE"/>
<ellipse cx="200.128" cy="141.328" rx="2.12" ry="1.94667" fill="#FFB61D"/>
<path d="M133.527 152.05C134.643 153.925 136.503 155.375 137.49 157.308C138.672 159.622 153.055 180.714 153.554 180.79C154.591 180.948 156.367 179.379 156.181 179.908C156.109 179.804 172.543 188.173 169.205 190.216C165.372 192.562 157.454 195.081 147.474 195.081C143.618 194.29 141.218 190.855 139.24 187.714C133.249 178.2 127.243 168.615 123.18 158.277C122.709 157.077 122.209 155.797 121.105 155.023C120.185 154.377 118.986 154.189 117.834 154.075C114.95 153.788 112.037 154.074 109.157 154.216C105.796 154.382 105.796 152.863 106.714 152.399C108.114 151.691 109.639 151.417 110.734 150.508C109.193 151.139 108.613 151.435 106.94 151.634C105.267 151.834 106.042 150.58 106.124 149.988C105.869 150.91 104.42 151.518 103.615 150.802C102.568 149.87 104.047 147.749 105.144 147.185C105.331 147.089 111.447 144.184 111.87 143.95C111.331 143.834 105.955 147.302 104.188 146.779C103.039 146.439 104.244 144.589 105.357 143.434C108.801 139.86 107.89 141.08 109.156 139.903C109.862 139.247 111.004 139.276 112.005 139.349C113.516 139.46 119.587 139.042 124.603 142.071C129.315 144.915 133.016 151.191 133.527 152.05Z" fill="white"/>
<path fill-rule="evenodd" clip-rule="evenodd" d="M228.362 79.3192C227.546 79.5228 226.865 80.1319 226.622 80.8752C226.445 81.4194 226.492 82.002 226.559 82.5669C226.668 83.4913 226.854 84.4716 227.542 85.1539C228.289 84.5177 228.295 83.4416 228.126 82.5193C228.102 82.3836 228.074 82.247 228.047 82.1098C227.888 81.3141 227.726 80.4999 228.024 79.7506C228.813 80.8914 229.062 82.3361 228.694 83.6447L231.04 82.7569C231.481 82.5903 232.003 82.83 232.275 83.1893C232.547 83.5487 232.627 83.9974 232.701 84.4296C232.876 85.4593 232.913 86.7652 231.914 87.2597C231.623 87.4039 231.215 87.7241 231.488 87.8961C232.304 88.4109 232.521 89.5564 231.98 90.3178C231.439 91.0793 230.255 91.3671 229.353 90.9911C228.452 90.6151 227.911 89.645 228.056 88.7457L225.995 89.957C225.806 90.0681 225.594 90.1839 225.373 90.1508C225.096 90.1095 224.926 89.8579 224.792 89.6314C224.265 88.7381 223.734 87.6481 224.265 86.7568C223.379 86.5494 222.574 86.0006 222.192 85.238C221.811 84.4754 221.905 83.507 222.504 82.8735C223.104 82.2399 224.206 82.0298 224.988 82.4646C225.353 82.6682 225.629 82.1027 225.644 81.7102C225.684 80.6399 226.057 79.4497 227.087 78.9479C227.561 78.7175 228.353 78.8274 228.362 79.3192ZM229.811 86.4469C230.623 86.8685 231.807 86.4198 232.059 85.5946C232.311 84.7694 231.554 83.8208 230.621 83.7929C229.498 83.7593 228.713 84.7957 228.288 85.7516C228.118 86.1347 227.498 86.0332 227.098 85.8437C226.697 85.6541 226.128 85.4736 225.865 85.8098C225.519 86.2528 224.991 86.5732 224.412 86.692C224.748 86.9377 224.871 87.3244 224.995 87.7133C225.049 87.8849 225.104 88.0569 225.177 88.2174C225.416 88.7416 226.224 89.171 226.609 88.7257C227.284 87.9447 228.069 87.2446 228.94 86.6488C229.194 86.4743 229.534 86.3033 229.811 86.4469ZM223.772 83.1953C223.355 83.0943 222.925 83.4362 222.845 83.826C222.766 84.2157 222.952 84.6126 223.201 84.9361C223.315 85.0833 223.445 85.2235 223.609 85.3224C224.032 85.5768 224.597 85.5113 225.068 85.3433C225.257 85.2758 225.44 85.1936 225.623 85.1115L225.623 85.1114C225.896 84.989 226.168 84.8668 226.459 84.7937C225.778 84.0181 224.822 83.4494 223.772 83.1953ZM231.301 89.6965C231.479 89.3705 231.365 88.9612 231.122 88.672C230.88 88.3828 230.532 88.1881 230.191 88L229.634 87.6922C229.42 87.5739 229.165 87.4518 228.933 87.5364C228.545 87.6781 228.617 88.1988 228.767 88.5573C228.981 89.0722 229.236 89.6113 229.731 89.9231C230.226 90.2348 231.032 90.1894 231.301 89.6965ZM187.253 86.3515C187.576 86.6362 187.621 87.1617 187.315 87.4612C187.009 87.7608 186.39 87.7275 186.16 87.3753C186.036 87.186 186.033 86.9597 186.03 86.7347V86.734C186.029 86.6634 186.029 86.593 186.024 86.5238C186.004 86.2341 185.741 85.5653 185.672 85.4113C184.817 84.7686 184.493 83.7104 184.32 82.7084C184.19 81.9597 184.125 81.1661 184.445 80.4675C184.766 79.7689 185.581 79.2096 186.389 79.3674C187.325 79.5504 187.773 80.5116 188.074 81.3458C188.321 82.0269 188.482 82.9432 187.814 83.3161C187.7 82.407 187.563 81.4456 186.943 80.7293C186.549 80.2747 185.738 79.9775 185.317 80.411C185.136 80.5972 185.093 80.8617 185.072 81.1105C184.915 83.037 185.737 85.0123 187.253 86.3515ZM185.69 90.8368L185.568 90.8542C184.47 91.0101 183.329 91.172 182.468 90.2638C181.574 89.3217 181.262 87.2678 181.746 86.7323C182.427 85.9789 183.514 85.5343 184.583 85.599C184.629 85.7005 184.6 85.9284 184.57 86.1584L184.57 86.1586C184.54 86.393 184.509 86.6297 184.558 86.7372C183.817 86.3833 182.804 86.6263 182.346 87.2678C182.289 87.3473 182.239 87.4438 182.27 87.5345C182.513 88.2466 182.779 88.9883 183.36 89.5109C183.94 90.0334 184.937 90.2465 185.567 89.7747C185.769 89.6238 185.911 89.4227 186.054 89.221C186.169 89.0586 186.284 88.8957 186.43 88.7584C186.759 88.4507 187.425 88.3503 187.63 88.7378C187.132 89.1969 186.659 89.6791 186.214 90.1819C186.108 90.3018 186.002 90.4795 186.112 90.5964C186.382 90.883 186.434 91.272 186.485 91.6565C186.499 91.7633 186.513 91.8698 186.532 91.9737C186.618 92.4511 186.947 92.9934 187.474 92.9816C187.918 92.9717 188.218 92.5743 188.441 92.2209L189.28 90.8923C189.524 90.9195 189.682 91.1644 189.677 91.3897C189.672 91.6151 189.547 91.8218 189.421 92.0155C189.034 92.6122 188.607 93.1871 188.144 93.7361C188.003 93.9034 187.841 94.0785 187.617 94.1267C187.384 94.1766 187.145 94.0758 186.945 93.956C185.861 93.3081 185.325 91.9763 185.69 90.8368ZM190.471 82.5842C190.844 82.4121 191.348 82.4168 191.63 82.6994C192.25 84.0781 191.833 85.7948 190.633 86.8004C190.605 86.8242 190.576 86.8479 190.546 86.8718L190.546 86.872C190.348 87.034 190.144 87.2013 190.076 87.4331C189.998 87.699 190.247 88.0483 190.532 87.9614C190.73 87.9008 190.793 87.6962 190.853 87.5021C190.866 87.4601 190.879 87.4187 190.893 87.3792C191.067 86.891 191.646 86.5546 192.201 86.6205C192.914 86.9025 194.357 87.6648 194.084 89.6851C193.84 91.4925 192.867 91.4077 192.52 91.3775C192.479 91.3739 192.447 91.3711 192.425 91.3723C191.483 91.4224 190.919 90.4807 190.46 89.7148L190.435 89.6725C190.219 89.3119 189.731 88.9224 189.393 89.1931C189.261 89.2988 189.221 89.4698 189.197 89.629C189.159 89.8728 189.148 90.1462 189.316 90.3377C189.485 90.5292 189.895 90.5272 189.966 90.29C190.053 91.0092 190.481 91.7041 191.155 92.0786C191.83 92.4531 192.745 92.4659 193.389 92.0491C193.855 91.748 194.143 91.2678 194.357 90.7832C194.553 90.3385 194.7 89.8693 194.711 89.3898C194.737 88.2232 193.94 87.1435 192.914 86.4559C192.646 86.2766 192.326 86.0542 192.36 85.7514L192.511 84.4006C192.583 83.7498 192.652 83.0707 192.398 82.4597C192.143 81.8487 191.457 81.3356 190.759 81.4642C190.199 81.5671 189.85 82.0031 189.498 82.4437C189.177 82.8445 188.853 83.2492 188.365 83.4106C187.825 83.5891 187.798 84.2708 187.869 84.7935C187.893 84.9693 187.921 85.1548 188.041 85.2934C188.161 85.432 188.407 85.4947 188.549 85.3747C188.513 84.6193 189.053 83.9556 189.567 83.3644C189.827 83.0649 190.099 82.7563 190.471 82.5842ZM141.706 111.782C142.76 110.928 144.218 110.646 145.616 110.509C150.526 110.028 155.59 110.977 159.901 113.186C159.947 113.21 159.992 113.233 160.037 113.256C160.077 113.277 160.117 113.298 160.156 113.318L160.157 113.318L160.157 113.318L160.157 113.318L160.157 113.319C160.945 113.727 161.751 114.145 162.648 114.196C162.929 114.212 163.21 114.191 163.491 114.17C163.737 114.151 163.983 114.133 164.229 114.139C164.818 114.154 165.368 114.234 165.913 114.314C166.933 114.463 167.932 114.609 169.126 114.315C170.837 113.894 171.088 114.307 171.27 115.151C171.452 115.995 170.789 116.848 169.938 117.207C169.086 117.566 168.101 117.529 167.176 117.393C166.908 117.353 166.641 117.306 166.374 117.259L166.374 117.259C165.718 117.143 165.063 117.027 164.397 117.026C163.08 117.024 161.771 117.463 160.484 117.896C158.664 118.507 156.884 119.104 155.177 118.423C154.573 118.181 153.878 118.352 153.247 118.526L146.576 120.361C144.925 120.815 143.218 121.275 141.506 121.094C140.146 120.951 138.892 120.416 137.638 119.882C136.374 119.343 135.11 118.805 133.739 118.667C132.584 118.551 131.414 118.727 130.25 118.902L130.25 118.902C128.768 119.125 127.296 119.346 125.877 118.962C125.954 118.626 126.354 118.455 126.704 118.335C128.843 117.601 131.016 116.86 133.293 116.702C133.668 116.676 134.051 116.664 134.435 116.653C135.826 116.61 137.233 116.567 138.346 115.845C139.16 115.317 139.664 114.517 140.17 113.713C140.612 113.013 141.055 112.31 141.706 111.782ZM156.297 117.698C157.68 118.06 159.013 117.51 160.37 116.949C161.314 116.559 162.27 116.164 163.265 116.067C164.235 115.973 165.199 116.167 166.162 116.362C167.167 116.565 168.171 116.767 169.179 116.641C169.891 116.552 170.733 115.941 170.358 115.378C170.139 115.049 169.645 115.009 169.225 115.005L162.377 114.944C161.635 114.937 160.83 114.91 160.254 114.481C159.055 113.586 157.594 113.038 156.122 112.609C154.108 112.022 152.024 111.633 149.919 111.467C147.621 111.286 145.298 111.371 143.023 111.721L140.345 114.914C139.249 116.22 137.78 117.672 136.008 117.403C133.696 117.051 131.266 117.389 129.171 118.355C131.278 117.716 133.61 117.722 135.711 118.374C136.328 118.565 136.923 118.809 137.517 119.052C138.21 119.336 138.903 119.62 139.628 119.82C142.982 120.745 146.583 119.783 149.86 118.652L149.978 118.611C152.017 117.907 154.209 117.151 156.297 117.698ZM137.196 143.948C138.379 142.641 139.53 141.371 141.293 141.31C144.035 141.214 146.728 140.314 148.938 138.819C149.474 138.457 150.008 138.027 150.202 137.442C150.396 136.857 150.095 136.099 149.445 135.965C148.187 135.706 147.706 134.501 147.234 133.317L147.234 133.317C147.083 132.937 146.932 132.56 146.758 132.217C146.012 130.752 144.458 129.66 142.725 129.38C142.068 129.274 141.399 129.279 140.73 129.284C140.137 129.288 139.544 129.292 138.959 129.22C137.712 129.065 136.38 128.393 136.151 127.257C135.575 124.384 132.018 122.346 128.954 123.133C128.082 123.358 127.34 122.841 126.576 122.309C125.972 121.888 125.354 121.458 124.644 121.373C124.028 121.299 123.416 121.501 122.833 121.699C121.519 122.147 120.169 122.613 119.132 123.48C118.096 124.347 117.435 125.721 117.875 126.943C118.138 127.671 117.483 128.407 116.791 128.838C116.649 128.927 116.5 129.012 116.351 129.098C115.778 129.428 115.198 129.762 114.908 130.31C114.472 131.135 114.872 132.131 115.433 132.891C116.05 133.727 116.871 134.477 117.684 135.221L117.684 135.221C119.247 136.65 120.783 138.054 120.794 139.994L112.005 139.349C111.004 139.276 109.862 139.247 109.156 139.903C108.734 140.296 108.554 140.421 108.374 140.547C108.013 140.799 107.653 141.051 105.357 143.434C104.244 144.589 103.039 146.439 104.188 146.779C105.348 147.122 108.062 145.746 109.943 144.793L109.944 144.792L109.944 144.792C110.929 144.293 111.685 143.91 111.87 143.95C111.579 144.111 108.605 145.531 106.709 146.436C105.843 146.849 105.203 147.155 105.144 147.185C104.047 147.749 102.568 149.87 103.615 150.802C104.42 151.518 105.869 150.91 106.124 149.988C106.108 150.105 106.065 150.247 106.019 150.399L106.019 150.399C105.832 151.018 105.597 151.794 106.94 151.634C108.443 151.455 109.064 151.198 110.292 150.69C110.431 150.632 110.578 150.572 110.734 150.508C110.051 151.075 109.2 151.395 108.317 151.727L108.317 151.727L108.317 151.728L108.316 151.728L108.316 151.728C107.784 151.928 107.24 152.133 106.714 152.399C105.796 152.863 105.796 154.382 109.157 154.216C109.727 154.188 110.297 154.154 110.869 154.12L110.869 154.12L110.87 154.12L110.871 154.12L110.872 154.12L110.873 154.12L110.874 154.12L110.875 154.12L110.876 154.12C113.193 153.983 115.523 153.845 117.834 154.075C118.986 154.189 120.185 154.377 121.105 155.023C122.204 155.794 122.704 157.066 123.174 158.261L123.18 158.277C127.243 168.615 133.249 178.2 139.24 187.714C141.218 190.855 143.618 194.29 147.474 195.081C137.257 183.663 129.245 170.586 123.922 156.639C123.305 155.025 121.639 153.9 119.864 153.382C118.088 152.864 116.19 152.861 114.327 152.863C113.146 152.864 112.186 153.021 111.258 153.174C110.036 153.374 108.868 153.565 107.32 153.382C106.073 153.234 107.128 152.833 108.627 152.264C110.138 151.691 112.098 150.947 112.607 150.118C112.021 149.263 110.579 149.631 109.658 150.183C108.736 150.734 105.884 151.587 106.572 150.508C107.424 149.171 108.941 148.448 110.47 147.72C110.953 147.49 111.437 147.259 111.902 147.009C112.41 146.735 112.029 145.921 111.447 145.84C110.864 145.76 110.328 146.116 109.867 146.453C109.359 146.823 108.779 147.361 108.18 147.915C106.773 149.218 105.262 150.617 104.334 150.183C102.317 149.239 108.728 146.123 112.279 144.397L112.679 144.202L112.933 144.078C112.127 142.804 109.965 143.432 108.749 144.393L108.659 144.465L108.557 144.546C107.381 145.48 106 146.578 104.576 146.089C103.729 145.798 104.955 144.874 106.181 143.95C106.794 143.488 107.407 143.026 107.761 142.644C108.355 142 108.969 141.343 109.775 140.938C110.761 140.443 111.929 140.378 113.053 140.369C115.851 140.345 118.651 140.599 121.391 141.123C125.377 143.548 128.823 146.718 131.458 150.382C137.608 158.937 143.632 167.568 149.656 176.199C149.725 176.299 149.851 176.49 150.018 176.742L150.018 176.742C150.902 178.085 152.921 181.148 153.554 181.22C154.254 181.301 154.979 180.764 155.492 180.348L180.112 166.276C184.114 163.988 188.543 161.609 193.218 162.165C200.792 163.067 208.476 163.886 216.045 162.953C223.615 162.019 231.17 159.14 236.074 153.764C227.212 160.246 215.578 163.441 204.296 162.491C202.76 162.362 201.211 162.16 199.661 161.959L199.661 161.959C194.987 161.351 190.298 160.741 185.887 162.098C184.753 162.447 183.603 162.921 182.451 163.396L182.451 163.396C179.191 164.741 175.912 166.093 172.923 164.636C170.208 163.314 166.812 163.998 164.111 165.344C161.41 166.69 158.008 168.528 160.373 170.858C162.738 173.188 157.799 172.125 155.042 170.88C152.284 169.634 151.638 165.29 154.455 163.53C153.194 164.846 153.236 167.482 155.079 167.94C156.921 168.398 158.858 167.564 160.373 166.498C162.088 165.291 161.849 163.738 161.635 162.35C161.406 160.866 161.206 159.569 163.456 159.086C164.997 158.755 166.585 158.858 168.176 158.96C169.627 159.054 171.081 159.148 172.501 158.913C174.845 158.525 176.837 157.303 178.842 156.074C180.095 155.305 181.352 154.534 182.703 153.962C186.218 152.472 190.202 152.388 194.086 152.305H194.086C194.314 152.301 194.542 152.296 194.77 152.291C201.871 152.131 209.111 151.582 215.653 149.04C222.195 146.498 228.011 141.658 229.85 135.358C231.364 130.172 229.932 124.338 226.142 120.25C222.351 116.162 216.308 113.933 210.491 114.478C207.453 114.762 204.517 115.743 201.599 116.718C197.596 118.056 193.627 119.383 189.473 118.884C183.433 118.16 178.798 113.783 174.681 109.661C179.59 110.352 184.707 109.747 189.266 107.936C191.588 107.014 193.76 105.791 195.928 104.57C198.89 102.902 201.845 101.238 205.164 100.351C213.401 98.1513 222.576 101.338 228.592 106.953C234.609 112.568 237.854 120.245 239.567 127.964C240.683 132.993 241.212 138.106 241.742 143.22C242.025 145.955 242.308 148.689 242.681 151.412C242.869 152.783 243.078 154.162 243.289 155.547L243.289 155.55C244.518 163.637 245.772 171.882 242.818 179.486C240.295 185.981 234.981 191.184 229.766 196.146C222.681 202.887 215.38 209.659 206.429 214.154C198.148 218.312 188.797 220.34 179.463 221.623C172.142 222.629 164.725 223.206 157.332 222.857C141.864 222.126 126.992 217.388 112.437 212.526C107.206 210.779 101.741 208.981 96.2139 209.584C93.3748 209.893 90.6156 210.827 87.8767 211.755C83.8117 213.131 79.7915 214.493 75.6209 213.773C71.7876 213.112 68.6694 210.812 65.5537 208.514C62.3916 206.182 59.2322 203.851 55.3305 203.238C58.8186 202.708 62.2574 204.181 65.6378 205.629C69.5417 207.301 73.3675 208.94 77.1008 207.422C90.6747 201.901 106.282 203.704 120.982 205.612L139.055 207.957C141.589 208.286 144.096 207.762 146.616 207.234L146.616 207.234C148.098 206.924 149.585 206.613 151.083 206.475C154.965 206.116 158.787 206.919 162.62 207.724L162.62 207.724C164.647 208.15 166.677 208.577 168.721 208.833C184.035 210.75 200.149 201.779 205.38 188.424C206.064 186.678 206.614 184.828 207.165 182.975L207.165 182.975C208.755 177.629 210.353 172.257 215.193 169.272C215.699 168.96 216.243 168.67 216.788 168.38C218.503 167.468 220.235 166.546 220.858 164.882C216.276 166.262 212.272 169.201 209.797 173.001C208.056 175.674 207.09 178.67 206.122 181.67C205.679 183.042 205.236 184.414 204.719 185.757C199.944 198.154 186.921 208.509 172.625 207.733C169.749 207.577 166.919 206.995 164.093 206.414L164.093 206.414C160.559 205.688 157.033 204.963 153.431 205.073C151.422 205.135 149.441 205.457 147.458 205.779L147.458 205.779C145.84 206.042 144.221 206.304 142.586 206.426C137.205 206.827 131.844 205.692 126.587 204.565C138.426 201.884 150.424 199.792 162.509 198.301C171.405 197.204 181.653 195.695 186.209 188.593C189.458 183.528 194.746 180.023 200.029 176.522C205.427 172.944 210.82 169.37 214.03 164.138C198.789 178.187 176.84 190.261 145.194 196.197C144.975 196.236 144.759 196.277 144.546 196.318C144.763 196.278 144.978 196.238 145.194 196.197C147.382 195.806 149.884 195.503 152.607 195.174C163.081 193.907 176.81 192.247 188.384 183.625C186.396 187.781 182.841 191.289 178.469 193.407C174.586 195.288 170.2 196.062 165.888 196.812L139.072 201.48C130.774 202.925 122.355 204.376 113.936 203.761C111.597 203.59 109.263 203.26 106.931 202.931C102.398 202.291 97.8754 201.652 93.3532 202.184C90.3981 202.531 87.5578 203.369 84.7141 204.207L84.7137 204.207C82.9528 204.726 81.1905 205.245 79.3988 205.649C74.7137 206.705 69.4003 206.862 65.4373 204.336C57.6058 199.345 45.1435 202.711 41.5031 210.801C45.6627 206.178 53.1804 204.402 59.2538 206.607C61.7335 207.508 63.9275 208.976 66.1114 210.437C68.9049 212.306 71.6819 214.164 75.0195 214.81C79.5564 215.688 84.1447 214.156 88.6854 212.639C93.778 210.939 98.8108 209.258 103.644 211.02C120.023 216.992 137.034 221.906 154.587 223.353C172.14 224.799 190.358 222.608 205.931 215.033C213.921 211.146 221.066 205.933 227.704 200.296C233.964 194.98 239.963 189.053 243.004 181.738C246.354 173.679 245.793 164.756 245.184 156.148C244.076 140.481 242.706 124.052 233.469 110.841C230.366 106.404 226.34 102.389 221.256 99.9365C216.173 97.484 209.942 96.7451 204.62 98.7267C201.679 99.8221 199.038 101.451 196.394 103.081L196.394 103.081C194.945 103.975 193.495 104.869 191.994 105.677C186.291 108.744 179.544 110.029 173.2 108.327C170.834 107.691 168.595 106.733 166.355 105.775L166.355 105.775C164.228 104.865 162.101 103.954 159.863 103.32C155.633 102.122 151.126 101.948 146.714 102.268C129.651 103.505 113.377 112.488 104.514 125.933C95.6506 139.378 94.5781 156.973 102.098 171.091C109.618 185.209 125.614 195.293 142.694 196.318C140.573 195.11 138.115 194.658 135.646 194.203C134.252 193.946 132.855 193.689 131.514 193.295C127.797 192.203 124.06 189.08 124.997 185.601C125.8 182.617 122.923 179.876 120.017 178.35C119.451 178.053 118.866 177.769 118.278 177.483L118.278 177.483C115.848 176.3 113.377 175.098 112.079 172.928C109.284 168.254 113.641 162.798 117.697 158.982C113.184 161.362 109.829 165.521 108.665 170.179C111.379 174.5 115.713 177.946 120.759 179.794C123.35 182.898 124.609 186.915 124.21 190.809C109.441 182.526 99.3773 167.546 97.9421 151.71C97.5994 147.929 97.7498 143.991 99.4767 140.544C103.347 132.818 107.324 124.967 113.545 118.667C122.97 109.123 137.384 103.932 151.363 105.048C165.341 106.164 178.563 113.561 186.054 124.456C183.322 123.071 180.499 121.659 177.398 121.338C174.297 121.018 170.813 122.058 169.299 124.563C168.153 126.46 165.031 124.961 163.38 123.409C161.73 121.857 158.374 120.616 157.533 122.643L158.376 127.08C155.169 125.627 151.271 130.025 153.472 132.614C154.219 133.492 155.352 134.007 156.445 134.493C162.566 137.214 169.693 139.97 175.909 137.437C179.099 136.137 182.601 135.488 186.09 135.55C186.931 135.565 187.808 135.63 188.529 136.029C189.093 136.34 189.5 136.819 189.909 137.301L189.909 137.301C190.184 137.624 190.46 137.949 190.785 138.225C191.594 138.911 193.133 139.136 193.631 138.235C194.945 140.387 196.285 142.609 196.618 145.058C196.951 147.507 196.037 150.267 193.726 151.526C191.415 152.785 187.773 151.725 187.309 149.294C186.867 146.977 184.276 146.391 181.56 145.776C179.261 145.256 176.872 144.716 175.623 143.088C174.311 141.378 171.617 141.034 169.425 141.603C167.819 142.02 166.383 142.817 164.947 143.613L164.946 143.613C164.422 143.904 163.899 144.194 163.366 144.466C162.521 144.899 161.643 145.291 160.765 145.683C158.546 146.674 156.328 147.664 154.65 149.296C152.306 151.572 151.656 155.774 154.455 157.566C155.501 158.235 163.366 164.138 159.041 166.138C152.593 169.12 154.361 163.793 155.04 162.845C151.929 163.186 150.51 167.165 152.196 169.589C153.882 172.014 157.658 173.527 160.722 172.928C162.24 172.631 161.793 171.886 161.268 171.007C160.732 170.113 160.114 169.08 161.406 168.244C161.159 169.108 162.096 169.406 163.135 169.736C163.948 169.995 164.823 170.273 165.241 170.858C165.994 171.913 164.825 173.215 163.76 174.012L155.942 179.87C155.836 179.921 155.701 179.998 155.548 180.084C154.977 180.408 154.145 180.88 153.554 180.79C153.055 180.714 147.833 172.318 146.772 168.005C146.65 167.507 146.554 166.996 146.459 166.486L146.459 166.486C146.115 164.646 145.774 162.819 144.178 161.681C143.382 161.113 142.442 160.687 141.509 160.265C139.865 159.519 138.245 158.785 137.49 157.308C136.96 156.27 136.177 155.37 135.394 154.47C134.719 153.694 134.043 152.918 133.527 152.05C132.412 150.176 132.383 147.374 134.425 146.351C135.515 145.805 136.364 144.868 137.196 143.948ZM131.879 124.178C133.487 124.233 134.405 125.839 135.017 127.205C135.628 128.572 136.639 130.158 138.247 130.105C139.825 130.053 141.436 130.005 142.948 130.423C144.46 130.842 145.881 131.818 146.336 133.207C146.423 133.473 146.481 133.76 146.539 134.046L146.539 134.046C146.688 134.785 146.837 135.522 147.493 135.912C147.633 135.996 147.796 136.065 147.959 136.134C148.361 136.304 148.76 136.473 148.8 136.85C148.819 137.036 148.73 137.217 148.63 137.38C147.602 139.056 145.371 139.732 143.309 140.071C143.012 140.12 142.712 140.165 142.411 140.211C140.622 140.483 138.797 140.76 137.366 141.75C136.65 142.246 136.083 142.889 135.516 143.532C135.032 144.082 134.547 144.633 133.967 145.093C133.743 145.27 133.505 145.434 133.268 145.598L133.268 145.598C132.823 145.905 132.38 146.211 132.029 146.605C131.492 147.209 131.232 148.129 131.73 148.761C129.554 146.048 126.891 143.665 123.881 141.738C123.064 141.215 122.135 140.596 122.063 139.684C121.887 137.438 119.927 135.76 118.104 134.2L118.104 134.2C117.95 134.068 117.797 133.937 117.645 133.806C116.777 133.056 115.877 131.991 116.319 130.974C116.571 130.397 117.172 130.057 117.772 129.718C118.381 129.373 118.989 129.029 119.23 128.437C119.419 127.971 119.325 127.475 119.23 126.974C119.156 126.587 119.082 126.198 119.138 125.817C119.233 125.166 119.522 124.997 120.241 124.575C120.73 124.289 121.419 123.885 122.381 123.133C123.841 121.993 125.926 122.854 127.731 123.6C128.865 124.068 129.888 124.49 130.577 124.343C131.002 124.253 131.44 124.163 131.879 124.178ZM143.183 162.098C144.209 163.171 145.28 164.333 145.484 165.748C145.588 166.469 145.449 167.219 145.092 167.868L140.453 161.232C140.403 161.161 140.351 161.073 140.389 160.995C140.449 160.868 140.655 160.907 140.791 160.967L142.697 161.805C142.873 161.883 143.054 161.963 143.183 162.098ZM192.001 129.292C191.96 129.648 192.098 130.018 192.369 130.276C192.722 130.439 193.096 130.282 193.476 130.123C193.653 130.048 193.831 129.974 194.009 129.93C194.334 129.851 194.678 129.881 195.014 129.912L199.134 130.287C199.388 129.927 198.869 129.527 198.428 129.384C196.372 128.716 194.078 128.683 192.001 129.292ZM214.455 136.109C212.778 138.471 210.155 140.253 207.204 141.033L207.177 141.64C210.464 140.967 213.449 139.122 215.367 136.579C215.588 136.286 215.769 135.83 215.451 135.624C215.106 135.401 214.686 135.784 214.455 136.109ZM207.827 130.093C207.425 129.99 206.881 129.895 206.686 130.234C207.386 130.817 208.172 131.435 209.118 131.461C209.794 131.48 210.428 131.188 211.03 130.903C212.444 130.233 213.871 129.556 215.095 128.623C215.049 128.229 214.489 128.046 214.08 128.172C213.74 128.277 213.479 128.514 213.221 128.748L213.167 128.797L213.124 128.836C213.104 128.854 213.084 128.872 213.063 128.89C211.701 130.082 209.64 130.556 207.827 130.093ZM204.074 138.116C204.183 138.281 204.318 138.456 204.523 138.5C204.669 138.531 204.821 138.487 204.964 138.444L207.192 137.768C207.192 137.526 206.911 137.359 206.649 137.335C206.503 137.322 206.356 137.338 206.21 137.353C206.094 137.366 205.979 137.379 205.863 137.377C204.971 137.364 204.351 136.533 204.128 135.74C204.05 135.464 204 135.18 203.95 134.896C203.856 134.364 203.762 133.835 203.49 133.363C202.976 133.34 202.789 133.979 202.822 134.45C202.912 135.741 203.345 137.009 204.074 138.116ZM197.744 133.596C198.267 133.077 199.049 132.386 199.648 132.832C198.629 134.665 196.41 135.877 194.17 135.825C195.41 137.975 196.209 140.339 196.515 142.757C196.569 143.181 196.865 143.543 197.164 143.871C198.673 145.522 200.613 146.917 202.882 147.469C207.082 148.492 211.596 146.386 214.338 143.292C217.079 140.198 218.41 136.276 219.629 132.447C219.98 131.341 220.503 130.068 221.711 129.758C223.017 129.423 224.104 128.446 224.496 127.254C224.888 126.062 224.573 124.695 223.687 123.752C222.686 122.686 220.528 122.38 219.765 123.601C219.468 124.075 218.744 124.185 218.178 124.016C217.719 123.878 217.332 123.606 216.946 123.334C216.856 123.271 216.765 123.207 216.674 123.145C213.705 121.134 209.744 121.019 206.054 120.984C204.887 120.973 203.705 120.963 202.57 121.217C201.249 121.511 200.07 122.142 198.887 122.775C197.971 123.265 197.053 123.757 196.064 124.094C193.171 125.08 189.739 124.596 187.301 122.859C189.949 126.709 192.16 130.811 193.887 135.079C195.323 135.12 196.767 134.564 197.744 133.596ZM158.318 122.843C158.472 123.297 158.7 123.73 158.928 124.161C159.283 124.836 159.637 125.508 159.702 126.247C159.807 127.46 158.422 128.848 157.302 128.197C156.14 127.521 154.425 128.156 153.883 129.317C153.341 130.478 153.854 131.906 154.887 132.74C155.666 133.37 156.672 133.7 157.652 134.016C158.836 134.398 160.169 134.914 161.555 135.449L161.555 135.449C165.051 136.8 168.873 138.277 171.435 138.057C172.719 137.947 175.11 136.66 175.923 136.197C177.476 135.313 179.274 134.392 181.03 134.852C183.243 135.431 185.68 135.254 187.765 134.361C188.782 133.925 189.725 135.068 190.142 136.025C190.558 136.981 191.388 138.16 192.451 137.831C193.038 137.65 193.354 137.031 193.335 136.463C193.316 135.895 193.038 135.365 192.766 134.854L187.818 125.582C186.497 125.921 185.325 125.218 184.119 124.494C183.299 124.002 182.463 123.5 181.553 123.31C181.097 123.215 180.627 123.202 180.158 123.188C179.669 123.174 179.181 123.16 178.708 123.054C178.201 122.941 177.729 122.725 177.258 122.51C176.684 122.249 176.111 121.988 175.481 121.913C174.128 121.753 172.836 122.49 171.851 123.356C171.527 123.641 171.22 123.943 170.913 124.246L170.913 124.246C170.286 124.864 169.659 125.482 168.893 125.942C167.75 126.627 166.13 126.873 165.071 126.082C164.662 125.776 164.389 125.358 164.115 124.939C163.979 124.732 163.843 124.524 163.691 124.33C162.516 122.832 160.199 122.191 158.318 122.843ZM153.933 154.402C154.393 155.661 155.336 156.763 156.405 157.658C156.639 157.853 156.904 158.042 157.172 158.232L157.172 158.232C158.052 158.856 158.952 159.495 158.8 160.437C160.782 158.514 163.746 157.482 166.618 157.716C167.088 157.755 167.554 157.825 168.021 157.895L168.021 157.895C168.52 157.97 169.02 158.045 169.524 158.081C173.105 158.336 176.466 156.63 179.576 154.979L186.276 151.422C186.794 150.434 186.393 149.201 185.593 148.387C184.794 147.573 183.669 147.099 182.556 146.705C181.348 146.278 180.091 145.915 178.797 145.891C178.675 145.889 178.549 145.888 178.421 145.886H178.42C177.226 145.876 175.839 145.863 175.427 144.887C174.822 143.452 173.345 142.359 171.689 142.121C170.034 141.883 168.263 142.508 167.209 143.704C166.235 144.809 164.709 145.307 163.234 145.788C163.056 145.846 162.879 145.904 162.704 145.963C160.73 146.623 158.832 147.475 157.052 148.501C155.56 149.361 154.017 150.561 153.933 152.177C153.923 152.355 153.903 152.547 153.882 152.744V152.744V152.744C153.822 153.308 153.756 153.919 153.933 154.402ZM221.386 144.728C224.173 142.733 226.613 140.247 228.05 137.283C229.487 134.318 229.849 130.843 228.6 127.807C227.857 126.002 226.588 124.418 225.189 122.978C222.761 120.478 219.584 118.228 215.936 118.182C214.72 118.166 213.518 118.399 212.328 118.63L205.428 119.974C209.337 119.907 213.259 120.492 216.944 121.692L216.974 121.702C217.804 121.972 218.711 122.267 219.533 121.984C221.552 121.288 224.049 122.06 225.198 123.736C226.346 125.413 226.025 127.814 224.468 129.184C224.153 129.461 223.799 129.697 223.445 129.932C223.054 130.192 222.662 130.452 222.325 130.768C221.317 131.713 220.905 133.033 220.504 134.316C220.458 134.463 220.412 134.611 220.366 134.757C217.979 142.225 211.756 149.061 203.465 150.681C209.92 150.491 216.293 148.375 221.386 144.728ZM213.862 117.805C215.974 117.59 218.168 117.395 220.178 118.028C222.017 118.607 223.522 119.823 224.974 121.011L227.075 122.729C223.942 118.146 218.153 115.198 212.26 115.184C209.426 115.177 206.628 115.802 203.958 116.674C203.108 116.951 202.269 117.254 201.43 117.556L201.43 117.556C201.143 117.659 200.857 117.762 200.571 117.865C197.452 118.976 194.221 119.981 190.877 120.056C187.533 120.131 184.019 119.153 181.81 116.848C181.712 116.746 181.616 116.641 181.519 116.535C181.048 116.022 180.568 115.498 179.886 115.29C181.842 117.606 183.84 119.958 186.453 121.642C189.066 123.325 192.435 124.27 195.498 123.445C196.885 123.071 198.118 122.368 199.352 121.665C199.915 121.344 200.477 121.024 201.055 120.734C204.941 118.783 209.459 118.251 213.862 117.805ZM166.549 171.551C166.673 172.034 167.258 172.517 167.702 172.234C170.018 170.754 172.344 169.269 174.853 168.084C175.123 167.957 175.396 167.832 175.669 167.707C177.034 167.084 178.41 166.455 179.459 165.452C177.933 166.135 176.13 166.031 174.467 165.716C173.936 165.615 173.409 165.494 172.881 165.373C171.757 165.116 170.634 164.859 169.48 164.796C168.028 164.718 166.557 164.957 165.223 165.488C164.42 165.807 163.632 166.264 163.22 166.973C162.809 167.682 162.907 168.686 163.625 169.144C163.96 169.357 164.382 169.435 164.797 169.512C165.344 169.613 165.88 169.712 166.188 170.115C166.393 170.384 166.431 170.714 166.468 171.047C166.488 171.217 166.507 171.388 166.549 171.551ZM201.442 148.742C200.791 148.382 200.264 147.865 199.746 147.354L197.203 144.848L197.499 148.993C197.528 149.394 197.555 149.807 197.416 150.187C197.277 150.568 196.929 150.914 196.493 150.946C196.264 150.963 196.258 151.314 196.456 151.423C196.654 151.531 196.905 151.471 197.125 151.408L203.123 149.692C203.495 149.585 203.879 149.473 204.169 149.235C203.235 149.367 202.252 149.189 201.442 148.742ZM214.138 124.812C212.155 124.691 210.18 125.064 208.233 125.435C207.724 125.532 207.211 125.63 206.733 125.818C205.619 126.258 204.8 127.143 204.024 127.999C203.908 128.126 203.786 128.273 203.805 128.437C203.836 128.717 204.266 128.816 204.534 128.68C204.757 128.567 204.897 128.364 205.035 128.164C205.063 128.123 205.091 128.082 205.12 128.042C206.14 126.626 208.151 126.191 209.967 125.871C211.505 125.6 213.09 125.328 214.627 125.604C214.896 125.652 215.047 125.27 214.881 125.07C214.716 124.87 214.411 124.828 214.138 124.812Z" fill="#00160A"/>
</svg>
